<svg width="24" height="25" viewBox="0 0 24 25" fill="none" xmlns="http://www.w3.org/2000/svg">
<path d="M20.484 4.0133C15.797 -0.672276 8.19902 -0.671151 3.51344 4.01588C-1.17214 8.70291 -1.17101 16.3009 3.51602 20.9865C8.20305 25.672 15.801 25.6709 20.4866 20.9839C22.7369 18.7329 24.0007 15.6802 24 12.4973C23.9994 9.31496 22.7346 6.26321 20.484 4.0133ZM18.1736 17.2157C18.1731 17.2163 18.1726 17.2168 18.172 17.2173V17.2133L17.564 17.8173C16.7777 18.6136 15.6325 18.9412 14.544 18.6813C13.4473 18.3878 12.4048 17.9206 11.456 17.2973C10.5745 16.734 9.75752 16.0754 9.01999 15.3333C8.34138 14.6597 7.73172 13.92 7.19997 13.1253C6.61835 12.2702 6.15799 11.3387 5.83197 10.3573C5.45824 9.20438 5.76794 7.93927 6.63199 7.08933L7.34397 6.37735C7.54192 6.17851 7.86358 6.1778 8.06238 6.37576C8.06289 6.37627 8.06346 6.37679 8.06397 6.37735L10.312 8.62533C10.5108 8.82329 10.5115 9.14494 10.3135 9.34374C10.313 9.34426 10.3125 9.34477 10.312 9.34533L8.99196 10.6653C8.61321 11.04 8.56558 11.6353 8.87997 12.0653C9.35739 12.7206 9.88572 13.3371 10.46 13.9094C11.1003 14.5524 11.7963 15.1373 12.54 15.6574C12.9697 15.9571 13.5522 15.9066 13.924 15.5374L15.1999 14.2414C15.3979 14.0425 15.7195 14.0418 15.9183 14.2398C15.9189 14.2403 15.9194 14.2408 15.9199 14.2414L18.172 16.4974C18.3708 16.6953 18.3715 17.0169 18.1736 17.2157Z" fill="#D72638"/>
</svg>
