<svg width="33" height="31" viewBox="0 0 33 31" fill="none" xmlns="http://www.w3.org/2000/svg">
<g clip-path="url(#clip0_19_193)">
<path fill-rule="evenodd" clip-rule="evenodd" d="M18.2871 6.76152C17.2232 6.76152 16.1698 6.96739 15.187 7.36736C14.2042 7.76732 13.3111 8.35359 12.5589 9.0926C11.8067 9.83169 11.21 10.7091 10.8029 11.6747C10.5176 12.3515 10.3293 13.0623 10.2422 13.7868C10.1737 14.3563 9.85709 14.8821 9.33631 15.138L7.7959 15.8947C7.2751 16.1505 6.93342 16.6764 7.00187 17.2458C7.08898 17.9704 7.27725 18.6812 7.56258 19.358C7.96972 20.3236 8.56641 21.201 9.31858 21.9401C10.0708 22.6791 10.9639 23.2654 11.9467 23.6653C12.9295 24.0653 13.9829 24.2712 15.0467 24.2712C16.1105 24.2712 17.1639 24.0653 18.1468 23.6653C19.1296 23.2654 20.0226 22.6791 20.7749 21.9401C21.527 21.201 22.1237 20.3236 22.5309 19.358C22.8162 18.6812 23.0044 17.9704 23.0916 17.2458C23.16 16.6764 23.4767 16.1505 23.9975 15.8947L25.5378 15.138C26.0586 14.8821 26.4004 14.3563 26.3319 13.7868C26.2448 13.0623 26.0565 12.3515 25.7712 11.6747C25.3641 10.7091 24.7673 9.83169 24.0152 9.0926C23.2629 8.35359 22.3699 7.76732 21.3871 7.36736C20.4042 6.96739 19.3508 6.76152 18.2871 6.76152ZM22.0291 13.1976C22.1108 13.3912 22.1765 13.5905 22.226 13.7933C22.3619 14.3509 22.0082 14.8821 21.4874 15.138L19.9471 15.8947C19.4262 16.1505 19.1216 16.6818 18.9857 17.2393C18.9362 17.4423 18.8705 17.6414 18.7888 17.8351C18.5852 18.3179 18.2869 18.7566 17.9108 19.1262C17.5347 19.4957 17.0882 19.7888 16.5968 19.9888C16.1053 20.1888 15.5786 20.2917 15.0467 20.2917C14.5149 20.2917 13.9882 20.1888 13.4967 19.9888C13.0053 19.7888 12.5588 19.4957 12.1827 19.1262C11.8065 18.7566 11.5082 18.3179 11.3046 17.8351C11.223 17.6414 11.1573 17.4423 11.1078 17.2393C10.9719 16.6818 11.3255 16.1505 11.8463 15.8947L13.3866 15.138C13.9075 14.8821 14.2122 14.3509 14.3481 13.7933C14.3976 13.5905 14.4634 13.3912 14.5449 13.1976C14.7485 12.7148 15.0468 12.2761 15.423 11.9066C15.7991 11.537 16.2456 11.2439 16.737 11.0439C17.2284 10.844 17.7551 10.741 18.2871 10.741C18.819 10.741 19.3457 10.844 19.8371 11.0439C20.3285 11.2439 20.775 11.537 21.1511 11.9066C21.5272 12.2761 21.8256 12.7148 22.0291 13.1976Z" fill="#E22935"/>
<path fill-rule="evenodd" clip-rule="evenodd" d="M18.2872 0.394386C16.3724 0.394386 14.4763 0.764938 12.7072 1.48489C10.938 2.20484 9.33064 3.2601 7.97656 4.59039C6.62259 5.92069 5.54853 7.49998 4.81575 9.23808C4.20463 10.6876 3.84085 12.224 3.73689 13.7853C3.6988 14.3575 3.37665 14.8821 2.85582 15.138L1.31548 15.8947C0.794643 16.1505 0.458493 16.6752 0.496586 17.2473C0.60054 18.8088 0.964317 20.3451 1.57543 21.7946C2.30822 23.5327 3.38227 25.112 4.73629 26.4423C6.09029 27.7726 7.69775 28.8278 9.46686 29.5478C11.2359 30.2677 13.132 30.6383 15.0469 30.6383C16.9618 30.6383 18.8578 30.2677 20.6269 29.5478C22.396 28.8278 24.0035 27.7726 25.3575 26.4423C26.7115 25.112 27.7855 23.5327 28.5184 21.7946C29.1295 20.3451 29.4933 18.8088 29.5972 17.2473C29.6353 16.6752 29.9574 16.1505 30.4783 15.8947L32.0186 15.138C32.5395 14.8821 32.8756 14.3575 32.8375 13.7853C32.7335 12.224 32.3698 10.6876 31.7587 9.23808C31.0258 7.49998 29.9518 5.92069 28.5978 4.59039C27.2438 3.2601 25.6363 2.20484 23.8673 1.48489C22.0982 0.764938 20.2021 0.394386 18.2872 0.394386ZM25.5349 17.2467C25.5876 16.6757 25.9071 16.1505 26.4279 15.8947L27.9682 15.138C28.4891 14.8821 28.8279 14.357 28.7752 13.786C28.6793 12.7476 28.4241 11.7275 28.0166 10.761C27.4873 9.50566 26.7117 8.36509 25.7337 7.4043C24.7558 6.44352 23.5949 5.6814 22.3172 5.16143C21.0396 4.64147 19.6702 4.37384 18.2872 4.37384C16.9042 4.37384 15.5349 4.64147 14.2572 5.16143C12.9794 5.6814 11.8185 6.44352 10.8407 7.4043C9.86278 8.36509 9.08705 9.50566 8.55782 10.761C8.15031 11.7275 7.89506 12.7476 7.79921 13.786C7.74648 14.357 7.42704 14.8821 6.9062 15.138L5.36586 15.8947C4.84503 16.1505 4.50621 16.6757 4.55892 17.2467C4.65477 18.2851 4.91 19.3051 5.3175 20.2717C5.84674 21.527 6.62244 22.6676 7.60034 23.6284C8.57824 24.5891 9.73915 25.3513 11.0169 25.8712C12.2945 26.3912 13.6639 26.6588 15.0469 26.6588C16.4299 26.6588 17.7993 26.3912 19.0769 25.8712C20.3546 25.3513 21.5155 24.5891 22.4934 23.6284C23.4714 22.6676 24.247 21.527 24.7763 20.2717C25.1838 19.3051 25.439 18.2851 25.5349 17.2467Z" fill="#E22935"/>
<path d="M32.8645 14.3962H28.8126C28.8108 14.5996 28.6896 14.7837 28.5034 14.8751L25.8927 16.1576C25.7066 16.249 25.5878 16.433 25.5732 16.6365H29.625C29.6378 16.4329 29.757 16.249 29.9431 16.1576L32.5538 14.8751C32.7399 14.7837 32.8609 14.5997 32.8645 14.3962Z" fill="#FF6670"/>
<path d="M0.469727 16.6365H4.52155C4.52333 16.433 4.6446 16.249 4.83074 16.1576L7.44143 14.8751C7.62756 14.7837 7.74633 14.5996 7.76099 14.3962H3.70914C3.6963 14.5997 3.57717 14.7837 3.39104 14.8751L0.780348 16.1576C0.594221 16.249 0.473292 16.4329 0.469727 16.6365Z" fill="#FF6670"/>
<path d="M10.1928 14.3962C10.1762 14.5996 10.0578 14.7837 9.87172 14.8751L7.26101 16.1576C7.07486 16.249 6.95321 16.4331 6.95337 16.6365H11.0105C11.0019 16.4335 11.1252 16.2491 11.3114 16.1576L13.922 14.8751C14.1083 14.7836 14.2252 14.5992 14.2499 14.3962H10.1928Z" fill="#FF6670"/>
<path d="M22.3237 14.3962C22.3323 14.5992 22.209 14.7836 22.0228 14.8751L19.4121 16.1576C19.2258 16.2491 19.109 16.4335 19.0842 16.6365H23.1414C23.1579 16.4331 23.2763 16.249 23.4625 16.1576L26.0732 14.8751C26.2593 14.7837 26.3809 14.5996 26.3808 14.3962H22.3237Z" fill="#FF6670"/>
</g>
<defs>
<clipPath id="clip0_19_193">
<rect width="33" height="31" fill="white"/>
</clipPath>
</defs>
</svg>
