<svg width="24" height="23" viewBox="0 0 24 23" fill="none" xmlns="http://www.w3.org/2000/svg">
<path d="M21.75 21.25V7.75C21.7496 7.6115 21.7108 7.47582 21.638 7.358C21.5652 7.24018 21.4612 7.14482 21.3375 7.0825L17.25 5.035V1C17.25 0.801088 17.171 0.610322 17.0303 0.46967C16.8897 0.329018 16.6989 0.25 16.5 0.25H3C2.80109 0.25 2.61032 0.329018 2.46967 0.46967C2.32902 0.610322 2.25 0.801088 2.25 1V21.25H0.75V22.75H23.25V21.25H21.75ZM20.25 8.215V21.25H17.25V6.715L20.25 8.215ZM3.75 1.75H15.75V21.25H12.75V15.25H13.5V13.75H6V15.25H6.75V21.25H3.75V1.75ZM11.25 15.25V21.25H8.25V15.25H11.25Z" fill="#D72638"/>
</svg>
