<svg width="24" height="25" viewBox="0 0 24 25" fill="none" xmlns="http://www.w3.org/2000/svg">
<g clip-path="url(#clip0_19_145)">
<path d="M15.9998 2.28125H10.7029V0.5H5.29688V2.28125H0V18.281H5.29688V24.5H10.7029V18.281H15.9998L24 10.2815L15.9998 2.28125ZM6.70312 1.90625H9.29663V2.28125H6.70312V1.90625ZM9.29663 23.0938H6.70312V18.281H9.29663V23.0938ZM15.4177 16.8748H1.40625V3.6875H15.4177L22.0111 10.2815L15.4177 16.8748Z" fill="#D72638"/>
<path d="M9.11865 5.42383C7.19604 5.42383 5.59863 6.84271 5.31848 8.68842C4.52069 9.25787 4.00012 10.1906 4.00012 11.2455C4.00012 12.9802 5.40619 14.3865 7.14093 14.3865C8.1958 14.3865 9.12854 13.8659 9.69818 13.0681C11.5437 12.7878 12.9626 11.1904 12.9626 9.26776C12.9626 7.14813 11.2383 5.42383 9.11865 5.42383ZM7.14093 12.98C6.18439 12.98 5.40637 12.202 5.40637 11.2455C5.40637 11.0263 5.44757 10.8165 5.52228 10.6233C5.91193 11.654 6.73242 12.4745 7.76331 12.8643C7.56995 12.9388 7.36011 12.98 7.14093 12.98ZM8.81854 11.6864C7.71405 11.55 6.83643 10.6725 6.70001 9.56787C6.84082 9.53088 6.98859 9.51093 7.14093 9.51093C8.09729 9.51093 8.87549 10.2891 8.87549 11.2455C8.87549 11.3978 8.85571 11.5456 8.81854 11.6864ZM10.2773 11.4121C10.2801 11.3568 10.2817 11.3013 10.2817 11.2455C10.2817 9.51093 8.87549 8.10468 7.14093 8.10468C7.08508 8.10468 7.0296 8.10632 6.9743 8.10907C7.38721 7.3479 8.1936 6.8299 9.11865 6.8299C10.4628 6.8299 11.5563 7.92358 11.5563 9.26776C11.5563 10.1928 11.0385 10.9992 10.2773 11.4121Z" fill="#D72638"/>
</g>
<defs>
<clipPath id="clip0_19_145">
<rect width="24" height="24" fill="white" transform="translate(0 0.5)"/>
</clipPath>
</defs>
</svg>
