<svg width="24" height="25" viewBox="0 0 24 25" fill="none" xmlns="http://www.w3.org/2000/svg">
<g clip-path="url(#clip0_19_128)">
<path d="M4.34672 23.7897H0.703125V20.4968C0.703125 19.4913 1.51819 18.6763 2.52361 18.6763H2.52619C3.53161 18.6763 4.34667 19.4913 4.34667 20.4968V23.7897H4.34672Z" stroke="#D72638" stroke-width="1.5" stroke-miterlimit="10"/>
<path d="M17.7306 23.7897H14.1853V20.4477C14.1853 19.4693 14.9784 18.6763 15.9567 18.6763H15.9592C16.9376 18.6763 17.7306 19.4693 17.7306 20.4477V23.7897H17.7306Z" stroke="#D72638" stroke-width="1.5" stroke-miterlimit="10"/>
<path d="M14.1361 19.8091H4.34668V22.7046H14.1361V19.8091Z" stroke="#D72638" stroke-width="1.5" stroke-miterlimit="10"/>
<path d="M2.5249 18.5252V15.557C2.5249 14.3735 3.61456 13.4141 4.95875 13.4141H13.524C14.8682 13.4141 15.9578 14.3735 15.9578 15.557V18.0605" stroke="#D72638" stroke-width="1.5" stroke-miterlimit="10"/>
<path d="M23.2968 19.7993H17.7305V23.7968H23.2968V19.7993Z" stroke="#D72638" stroke-width="1.5" stroke-miterlimit="10"/>
<path d="M21.7195 15.0948H20.4832V13.8625C20.4832 12.9913 21.1893 12.2852 22.0605 12.2852H23.2968V13.5175C23.2968 14.3886 22.5906 15.0948 21.7195 15.0948Z" stroke="#D72638" stroke-width="1.5" stroke-miterlimit="10"/>
<path d="M21.7195 7.86355H20.4832V6.63125C20.4832 5.76013 21.1893 5.05396 22.0605 5.05396H23.2968V6.28625C23.2968 7.15733 22.5906 7.86355 21.7195 7.86355Z" stroke="#D72638" stroke-width="1.5" stroke-miterlimit="10"/>
<path d="M20.4833 10.7665V11.9988H19.247C18.3759 11.9988 17.6697 11.2926 17.6697 10.4215V9.18921H18.906C19.7771 9.18921 20.4833 9.89543 20.4833 10.7665Z" stroke="#D72638" stroke-width="1.5" stroke-miterlimit="10"/>
<path d="M20.4832 19.5722V7.0625" stroke="#D72638" stroke-width="1.5" stroke-miterlimit="10"/>
<path d="M14.2221 1.20312H4.26074V7.23383H14.2221V1.20312Z" stroke="#D72638" stroke-width="1.5" stroke-miterlimit="10"/>
<path d="M8.7334 17.3656L9.74932 16.3511" stroke="#D72638" stroke-width="1.5" stroke-miterlimit="10"/>
<path d="M5.36987 17.3656L6.3858 16.3511" stroke="#D72638" stroke-width="1.5" stroke-miterlimit="10"/>
<path d="M12.0972 17.3656L13.1131 16.3511" stroke="#D72638" stroke-width="1.5" stroke-miterlimit="10"/>
</g>
<defs>
<clipPath id="clip0_19_128">
<rect width="24" height="24" fill="white" transform="translate(0 0.5)"/>
</clipPath>
</defs>
</svg>
